<svg aria-hidden="true" style="position:absolute;width:0;height:0;overflow:hidden" xmlns="http://www.w3.org/2000/svg"><defs><symbol id="telegram" viewBox="0 0 37 32"><path d="M14.609 20.327v-.002L30.227 6.23c.685-.608-.15-.904-1.059-.354L9.892 18.038l-8.327-2.599c-1.799-.551-1.812-1.785.404-2.675L34.412.254c1.482-.674 2.914.355 2.348 2.624l-5.526 26.038c-.387 1.851-1.504 2.294-3.053 1.438l-8.418-6.218-4.083 3.971c-.453.44-.827.805-1.647.805l.573-8.586z"/></symbol><symbol id="facebook" viewBox="0 0 16 32"><path d="M10.305 31.651V15.823h4.368l.579-5.455h-4.947l.007-2.729c0-1.423.135-2.185 2.177-2.185h2.732V-.001h-4.369c-5.248 0-7.095 2.646-7.095 7.095v3.274H.484v5.455h3.273v15.825h6.548z"/></symbol><symbol id="instagram" viewBox="0 0 32 32"><path d="M9.604.579C11.258.503 11.787.484 16 .484h-.004c4.215 0 4.742.019 6.397.095 1.651.076 2.778.337 3.767.72a7.614 7.614 0 0 1 2.748 1.788l.001.001a7.607 7.607 0 0 1 1.771 2.697l.018.052c.383.986.644 2.113.721 3.766.074 1.655.095 2.183.095 6.397s-.02 4.742-.095 6.397c-.077 1.651-.339 2.778-.72 3.764a7.647 7.647 0 0 1-1.791 2.748l-.001.001a7.611 7.611 0 0 1-2.694 1.772l-.052.018c-.986.385-2.115.646-3.767.721-1.655.076-2.182.095-6.396.095s-4.742-.019-6.397-.095c-1.651-.076-2.778-.336-3.767-.72a7.644 7.644 0 0 1-2.745-1.789l-.001-.001a7.623 7.623 0 0 1-1.772-2.697l-.018-.052c-.383-.986-.644-2.113-.721-3.766C.503 20.742.484 20.214.484 16s.02-4.742.095-6.397c.073-1.652.335-2.778.72-3.767a7.66 7.66 0 0 1 1.789-2.747l.001-.001a7.61 7.61 0 0 1 2.697-1.772l.052-.018C6.824.915 7.951.654 9.604.578zm5.881 2.701h-.876v-.003c-2.892.003-3.447.022-4.877.087-1.513.07-2.335.321-2.88.535a4.84 4.84 0 0 0-1.785 1.16l-.001.001a4.818 4.818 0 0 0-1.15 1.752l-.011.033c-.212.547-.465 1.367-.534 2.88-.074 1.636-.089 2.124-.089 6.268s.015 4.634.087 6.269c.07 1.513.323 2.335.535 2.88a4.812 4.812 0 0 0 1.161 1.785 4.807 4.807 0 0 0 1.785 1.159c.547.212 1.367.465 2.88.535 1.636.074 2.128.092 6.271.092s4.634-.017 6.269-.092c1.513-.068 2.335-.32 2.88-.534a4.823 4.823 0 0 0 1.784-1.16l.001-.001a4.817 4.817 0 0 0 1.161-1.782c.212-.547.465-1.367.534-2.88.074-1.636.09-2.128.09-6.269 0-4.14-.015-4.631-.09-6.266-.068-1.513-.321-2.335-.534-2.88a4.836 4.836 0 0 0-1.16-1.784l-.001-.001a4.81 4.81 0 0 0-1.75-1.15l-.033-.011c-.547-.212-1.367-.465-2.88-.534-1.636-.074-2.128-.089-6.269-.089h-.519zM8.032 16l-.001-.108c0-4.401 3.567-7.968 7.968-7.968s7.968 3.567 7.968 7.968l-.001.113v-.006a7.968 7.968 0 0 1-15.934.005v-.006zm13.14 0 .001-.087a5.172 5.172 0 1 0-10.343.091v-.005a5.172 5.172 0 0 0 10.342.007V16zm1.248-8.282a1.862 1.862 0 0 1 3.724 0 1.862 1.862 0 0 1-3.724 0z"/></symbol><symbol id="map" viewBox="0 0 32 32"><path fill="#fff" style="fill:var(--color1, #fff)" d="M16 2.333c-6.075 0-11 4.925-11 11 0 4.264 2.765 8.355 5.725 11.48a39.876 39.876 0 0 0 5.166 4.553l.108.076a39.9 39.9 0 0 0 5.26-4.615l.015-.015c2.96-3.125 5.725-7.216 5.725-11.48-.001-6.075-4.925-10.999-11-10.999zm0 28.334-.555.832-.012-.008-.029-.02a14.512 14.512 0 0 1-.548-.386l.042.03a41.898 41.898 0 0 1-5.61-4.912l-.015-.016C6.234 22.98 3 18.404 3 13.334c0-7.18 5.82-13 13-13s13 5.82 13 13c0 5.069-3.235 9.645-6.275 12.853a41.849 41.849 0 0 1-5.509 4.848l-.115.081c-.093.07-.258.187-.424.302l-.081.053-.029.02-.008.005-.003.001s-.001.001-.556-.831zm0 0 .555.832a.996.996 0 0 1-1.113-.002l.004.002.555-.832z"/><path fill="#fff" style="fill:var(--color1, #fff)" d="M16 10.333a3 3 0 1 0 0 6 3 3 0 1 0 0-6zm-5 3a5 5 0 0 1 10 0 5 5 0 0 1-10 0z"/></symbol><symbol id="map1" viewBox="0 0 27 32"><path fill="#fff" style="fill:var(--color1, #fff)" d="M13.333 2.333c-6.075 0-11 4.925-11 11 0 4.264 2.765 8.355 5.725 11.48a39.876 39.876 0 0 0 5.166 4.553l.108.076a39.9 39.9 0 0 0 5.26-4.615l.015-.015c2.96-3.125 5.725-7.216 5.725-11.48-.001-6.075-4.925-10.999-11-10.999zm0 28.334-.555.832-.012-.008-.029-.02a15.273 15.273 0 0 1-.55-.388l.045.032a41.898 41.898 0 0 1-5.61-4.912l-.016-.016C3.567 22.98.333 18.404.333 13.334c0-7.18 5.82-13 13-13s13 5.82 13 13c0 5.069-3.235 9.645-6.275 12.853a41.849 41.849 0 0 1-5.509 4.848l-.115.081c-.093.07-.258.187-.424.302l-.081.053-.029.02-.008.005-.003.001s-.001.001-.556-.831zm0 0 .555.832a.996.996 0 0 1-1.113-.002l.004.002.555-.832z"/><path fill="#fff" style="fill:var(--color1, #fff)" d="M13.333 10.333a3 3 0 1 0 0 6 3 3 0 1 0 0-6zm-5 3a5 5 0 0 1 10 0 5 5 0 0 1-10 0z"/></symbol><symbol id="calendar" viewBox="0 0 32 32"><path fill="#fff" style="fill:var(--color1, #fff)" d="M6.667 6.333C5.747 6.333 5 7.08 5 8v18.667c0 .92.747 1.667 1.667 1.667h18.667c.92 0 1.667-.747 1.667-1.667V8c0-.92-.747-1.667-1.667-1.667H6.667zM3 8a3.667 3.667 0 0 1 3.667-3.667h18.667A3.667 3.667 0 0 1 29.001 8v18.667a3.667 3.667 0 0 1-3.667 3.667H6.667A3.667 3.667 0 0 1 3 26.667V8z"/><path fill="#fff" style="fill:var(--color1, #fff)" d="M21.333 1.667a1 1 0 0 1 1 1V8a1 1 0 0 1-2 0V2.667a1 1 0 0 1 1-1zm-10.666 0a1 1 0 0 1 1 1V8a1 1 0 0 1-2 0V2.667a1 1 0 0 1 1-1zM3 13.333a1 1 0 0 1 1-1h24a1 1 0 0 1 0 2H4a1 1 0 0 1-1-1z"/></symbol><symbol id="commode" viewBox="0 0 36 32"><path d="M34.016 13.118H2.347a.426.426 0 0 1-.426-.426V3.429c0-.236.191-.426.426-.426h31.669c.235 0 .426.191.426.426v9.263a.426.426 0 0 1-.426.426zm-31.243-.853H33.59v-8.41H2.773v8.411z"/><path d="M34.016 22.381H2.347a.426.426 0 0 1-.426-.426v-9.263c0-.236.191-.426.426-.426h31.669c.235 0 .426.191.426.426v9.263a.426.426 0 0 1-.426.426zm-31.243-.853H33.59v-8.41H2.773v8.41z"/><path d="M34.016 31.643H2.347a.426.426 0 0 1-.426-.426v-9.263c0-.235.191-.426.426-.426h31.669c.235 0 .426.191.426.426v9.263a.426.426 0 0 1-.426.426zm-31.243-.852H33.59v-8.41H2.773v8.41zM18.979 8.487h-1.594a.426.426 0 0 1 0-.852h1.594a.426.426 0 0 1 0 .852zm0 9.262h-1.606a.426.426 0 0 1 0-.852h1.607a.426.426 0 0 1 0 .852z"/><path d="M18.979 27.012h-1.594a.426.426 0 0 1 0-.852h1.594a.426.426 0 0 1 0 .852zM35.227 3.856H1.136A1.137 1.137 0 0 1 0 2.72V1.494A1.137 1.137 0 0 1 1.136.358h34.091a1.137 1.137 0 0 1 1.136 1.136V2.72a1.137 1.137 0 0 1-1.136 1.136zM1.136 1.209a.284.284 0 0 0-.284.284v1.226c0 .156.127.284.284.284h34.091a.284.284 0 0 0 .284-.284V1.493a.284.284 0 0 0-.284-.284H1.136z"/></symbol><symbol id="bed" viewBox="0 0 26 32"><path  d="M24.219 10.803H2.021a.375.375 0 0 1-.375-.375V2.639c0-.207.168-.375.375-.375h22.198c.207 0 .375.168.375.375v7.789a.375.375 0 0 1-.375.375zm-21.823-.75h21.448V3.014H2.396v7.039z"/><path  d="M22.498 10.803H3.742a.375.375 0 0 1-.375-.375V4.36c0-.207.168-.375.375-.375h18.756c.207 0 .375.168.375.375v6.068a.375.375 0 0 1-.375.375zm-18.381-.75h18.006V4.735H4.117v5.318z"/><path  d="M11.989 10.803H4.873a1.508 1.508 0 0 1-1.506-1.506V5.491a1.508 1.508 0 0 1 1.506-1.506h7.117a1.508 1.508 0 0 1 1.506 1.506v3.806a1.508 1.508 0 0 1-1.506 1.506zM4.873 4.735a.758.758 0 0 0-.756.756v3.806a.758.758 0 0 0 .756.756h7.117a.758.758 0 0 0 .756-.756V5.491a.756.756 0 0 0-.756-.756H4.873z"/><path  d="M21.367 10.803h-7.116a1.508 1.508 0 0 1-1.506-1.506V5.491a1.508 1.508 0 0 1 1.506-1.506h7.116a1.508 1.508 0 0 1 1.506 1.506v3.806a1.508 1.508 0 0 1-1.506 1.506zm-7.116-6.068a.758.758 0 0 0-.756.756v3.806a.758.758 0 0 0 .756.756h7.116a.756.756 0 0 0 .756-.756V5.491a.757.757 0 0 0-.756-.756h-7.116z"/><path  d="M24.491 29.736H1.75A1.508 1.508 0 0 1 .244 28.23V11.559a1.508 1.508 0 0 1 1.506-1.506h22.741a1.508 1.508 0 0 1 1.506 1.506V28.23a1.508 1.508 0 0 1-1.506 1.506zM1.749 10.803a.756.756 0 0 0-.756.756V28.23a.758.758 0 0 0 .756.756H24.49a.758.758 0 0 0 .756-.756V11.559a.758.758 0 0 0-.756-.756H1.749zm22.886-7.789H1.605A1.363 1.363 0 0 1 .243 1.653v-.291A1.364 1.364 0 0 1 1.605 0h23.03c.752.001 1.361.61 1.362 1.361v.291a1.363 1.363 0 0 1-1.361 1.362zM1.605.75a.612.612 0 0 0-.612.611v.291a.613.613 0 0 0 .612.612h23.03a.612.612 0 0 0 .612-.611v-.291a.613.613 0 0 0-.612-.612H1.605z"/><path  d="M24.635 32H1.605a1.363 1.363 0 0 1-1.362-1.361v-.291a1.363 1.363 0 0 1 1.361-1.362h23.03c.752.001 1.361.61 1.362 1.361v.291A1.364 1.364 0 0 1 24.635 32zm-23.03-2.264a.612.612 0 0 0-.612.611v.291c0 .338.274.611.612.612h23.03a.612.612 0 0 0 .612-.611v-.291a.613.613 0 0 0-.612-.612H1.605z"/></symbol><symbol id="kitchen" viewBox="0 0 34 32"><path d="M23.077 30.002H10.966a.399.399 0 0 1-.399-.399v-9.275a.4.4 0 0 1 .399-.399h12.111c.22 0 .399.178.399.399v9.275a.4.4 0 0 1-.399.399zm-11.712-.798h11.313v-8.477H11.365v8.477z"/><path d="M23.077 31.709H10.966a.4.4 0 0 1-.399-.399v-1.707a.4.4 0 0 1 .399-.399h12.111a.4.4 0 0 1 .399.399v1.707a.4.4 0 0 1-.399.399zm-11.712-.798h11.313v-.909H11.365v.909zm11.712-10.184H10.966a.4.4 0 0 1-.399-.399v-3.933a.4.4 0 0 1 .399-.399h12.111a.4.4 0 0 1 .399.399v3.933a.4.4 0 0 1-.399.399zm-11.712-.798h11.313v-3.135H11.365v3.135z"/><path d="M17.021 19.655a1.293 1.293 0 0 1 0-2.586 1.293 1.293 0 0 1 0 2.586zm0-1.788a.495.495 0 0 0 0 .99.495.495 0 0 0 0-.99zm3.359 1.788a1.293 1.293 0 0 1 0-2.586 1.293 1.293 0 0 1 0 2.586zm0-1.788a.495.495 0 0 0 0 .99.495.495 0 0 0 0-.99zm-6.718 1.788a1.293 1.293 0 0 1 0-2.586 1.293 1.293 0 0 1 0 2.586zm0-1.788a.495.495 0 0 0 0 .99.495.495 0 0 0 0-.99zm7.073 5.192h-7.427a.938.938 0 0 1 0-1.876h7.427a.938.938 0 0 1 0 1.876h-.001zm-7.427-1.078a.14.14 0 1 0 0 .28h7.427a.14.14 0 1 0 0-.28h-7.427z"/><path d="M20.38 28.728h-6.718a.4.4 0 0 1-.399-.399V22.66a.4.4 0 0 1 .399-.399h6.718a.4.4 0 0 1 .399.399v5.669a.4.4 0 0 1-.399.399zm-6.319-.798h5.92v-4.871h-5.92v4.871zm.302-11.135a.4.4 0 0 1-.399-.399v-.99a.4.4 0 0 1 .798 0v.99a.398.398 0 0 1-.399.399zm1.891 0a.4.4 0 0 1-.399-.399v-.591h-.532a.4.4 0 0 1 0-.798h.931a.4.4 0 0 1 .399.399v.99a.399.399 0 0 1-.399.399zm-3.782 0a.4.4 0 0 1-.399-.399v-.99c0-.22.178-.399.399-.399h.931a.4.4 0 0 1 0 .798h-.532v.591a.398.398 0 0 1-.399.399zm7.208 0a.4.4 0 0 1-.399-.399v-.99a.4.4 0 0 1 .798 0v.99a.399.399 0 0 1-.399.399zm-1.892 0a.4.4 0 0 1-.399-.399v-.99a.4.4 0 0 1 .399-.399h.931a.4.4 0 0 1 0 .798h-.532v.591a.398.398 0 0 1-.399.399zm3.783 0a.4.4 0 0 1-.399-.399v-.591h-.532a.4.4 0 0 1 0-.798h.931c.221 0 .399.179.399.399v.99a.398.398 0 0 1-.399.399zm3.434 1.452h-.714a.4.4 0 0 1 0-.798h.714a.4.4 0 0 1 0 .798z"/><path d="M26.219 31.709h-3.142a.4.4 0 0 1-.399-.399V16.396c0-.221.179-.399.399-.399h3.142c.22 0 .399.178.399.399V31.31a.399.399 0 0 1-.399.399zm-2.743-.798h2.344V16.795h-2.344v14.116z"/><path d="M33.644 24.252h-7.425a.4.4 0 0 1-.399-.399v-7.457a.4.4 0 0 1 .399-.399h7.425a.4.4 0 0 1 .399.399v7.457a.4.4 0 0 1-.399.399zm-7.026-.798h6.627v-6.659h-6.627v6.659z"/><path d="M30.888 18.247h-1.914a.4.4 0 0 1 0-.798h1.913a.4.4 0 0 1 0 .798zm-24.249 0H4.726a.4.4 0 0 1 0-.798h1.913a.4.4 0 0 1 0 .798zm27.005 13.462h-7.425a.4.4 0 0 1-.399-.399v-7.457a.4.4 0 0 1 .399-.399h7.425c.22 0 .399.178.399.399v7.457a.4.4 0 0 1-.399.399zm-7.026-.798h6.627v-6.659h-6.627v6.659z"/><path d="M30.888 25.704h-1.914a.4.4 0 0 1 0-.798h1.913a.4.4 0 0 1 0 .798zM5.682 31.709H.399A.4.4 0 0 1 0 31.31V20.328a.4.4 0 0 1 .399-.399h5.283c.22 0 .399.178.399.399V31.31a.4.4 0 0 1-.399.399zm-4.884-.798h4.485V20.728H.798v10.184z"/><path d="M10.966 31.709H5.683a.4.4 0 0 1-.399-.399V20.328a.4.4 0 0 1 .399-.399h5.283c.22 0 .399.178.399.399V31.31a.4.4 0 0 1-.399.399zm-4.885-.798h4.485V20.728H6.081v10.184z"/><path d="M6.944 26.882a.4.4 0 0 1-.399-.399v-1.328a.399.399 0 0 1 .798 0v1.329c0 .22-.178.399-.399.399zm-2.523 0a.4.4 0 0 1-.399-.399v-1.328a.399.399 0 0 1 .798 0v1.329c0 .22-.178.399-.399.399zm6.545-6.155H.399A.4.4 0 0 1 0 20.328v-3.933a.4.4 0 0 1 .399-.399h10.567a.4.4 0 0 1 .399.399v3.933a.4.4 0 0 1-.399.399zM.798 19.929h9.769v-3.135H.798v3.135zM22.627 8.435H11.415a.85.85 0 0 1-.849-.849V6.441a.85.85 0 0 1 .849-.849h11.212a.85.85 0 0 1 .849.849v1.146a.85.85 0 0 1-.849.849zM11.415 6.39a.051.051 0 0 0-.051.051v1.146c0 .028.023.051.051.051h11.212a.051.051 0 0 0 .051-.051V6.442a.051.051 0 0 0-.051-.051H11.415z"/><path d="M21.795 6.39h-9.548a.84.84 0 0 1-.52-1.501l.002-.001.306-.24A4.992 4.992 0 0 0 13.964.706V.691v.001c0-.221.179-.399.399-.399h5.317c.22 0 .399.178.399.399v.015c0 1.597.75 3.019 1.917 3.933l.011.008.306.24a.84.84 0 0 1-.517 1.502zm-7.046-5.301a5.78 5.78 0 0 1-2.209 4.177l-.013.01-.306.24a.043.043 0 0 0-.016.034c0 .024.019.043.043.043h9.548a.043.043 0 0 0 .043-.043.042.042 0 0 0-.016-.033l-.306-.24a5.782 5.782 0 0 1-2.221-4.168l-.001-.018H14.75zm17.659 7.346H26.06a1 1 0 0 1 0-2h6.348a1 1 0 0 1 0 2zM26.06 7.233a.202.202 0 0 0 0 .404h6.348a.202.202 0 0 0 0-.404H26.06zM7.982 8.435H1.634a1 1 0 0 1 0-2h6.348a1 1 0 0 1 0 2zM1.634 7.233a.202.202 0 0 0 0 .404h6.348a.202.202 0 0 0 0-.404H1.634z"/><path d="M7.345 7.233H5.722a.4.4 0 0 1-.399-.399V5.462c0-.22.178-.399.399-.399h1.623c.22 0 .399.178.399.399v1.372c0 .22-.178.399-.399.399zm-1.223-.798h.825v-.574h-.825v.574z"/><path d="M7.728 5.861H5.341a.4.4 0 0 1 0-.798h2.388a.4.4 0 0 1 0 .798zM3.894 7.233H2.271a.399.399 0 0 1-.398-.399V5.462c0-.22.178-.399.399-.399h1.623c.22 0 .399.178.399.399v1.372c0 .22-.178.399-.399.399zM2.67 6.435h.825v-.574H2.67v.574z"/><path d="M4.276 5.861H1.889a.4.4 0 0 1 0-.798h2.387a.4.4 0 0 1 0 .798zm3.069 0H5.722a.4.4 0 0 1-.399-.399V4.091c0-.221.178-.399.399-.399h1.623c.22 0 .399.178.399.399v1.372c0 .22-.178.399-.399.399zm-1.223-.797h.825v-.573h-.825v.574z"/><path d="M7.728 4.49H5.341a.4.4 0 0 1 0-.798h2.388a.399.399 0 0 1 0 .798h-.001zM3.894 5.861H2.271a.399.399 0 0 1-.398-.399V4.091c0-.221.178-.399.399-.399h1.623c.22 0 .399.178.399.399v1.372c0 .22-.178.399-.399.399zM2.67 5.064h.825v-.573H2.67v.574z"/><path d="M4.276 4.49H1.889a.4.4 0 0 1 0-.798h2.399a.4.4 0 0 1 0 .798h-.012.001zm24.958 2.743a2.575 2.575 0 0 1-2.174-3.955l-.006.01a.4.4 0 0 1 .338-.187h3.686c.137 0 .264.07.337.187a2.575 2.575 0 0 1-2.18 3.945zM27.627 3.9a1.778 1.778 0 1 0 3.21-.01l.005.011h-3.215z"/><path d="M29.197 3.9a.4.4 0 0 1-.399-.399V.934a.4.4 0 0 1 .798 0v2.567a.4.4 0 0 1-.399.399z"/><path d="M29.197 3.9a.4.4 0 0 1-.282-.681l1.38-1.381a.398.398 0 0 1 .674.289.4.4 0 0 1-.11.276l-1.38 1.38a.398.398 0 0 1-.282.117z"/><path d="M29.197 3.9a.396.396 0 0 1-.282-.117l-1.38-1.38a.4.4 0 0 1 .558-.57L29.48 3.22a.398.398 0 0 1-.282.681zm-8.48 11.905h-1.946a2 2 0 0 1-1.998-1.998v-.938a.4.4 0 0 1 .399-.399h5.144c.221 0 .399.179.399.399v.938a2 2 0 0 1-1.998 1.998zm-3.146-2.538v.539c.001.663.538 1.2 1.2 1.201h1.946a1.203 1.203 0 0 0 1.201-1.201v-.539h-4.347z"/><path d="M23.077 13.97h-.76a.4.4 0 0 1 0-.798h.773a.4.4 0 0 1 0 .798h-.012.001zm-6.035 0h-.76a.4.4 0 0 1 0-.798h.76a.4.4 0 0 1 0 .798h-.001z"/><path d="M22.317 13.267h-5.144a.4.4 0 0 1-.328-.626l-.001.001c.558-.812 1.67-1.316 2.901-1.316s2.343.505 2.901 1.316a.4.4 0 0 1-.329.625zm-4.073-.798h3.002c-.438-.218-.955-.346-1.501-.346s-1.063.128-1.521.355l.02-.009z"/><path d="M19.258 12.154a.398.398 0 0 1-.265-.101 1.133 1.133 0 1 1 1.505-.001l-.001.001a.4.4 0 1 1-.53-.596l.001-.001a.335.335 0 1 0-.444 0 .399.399 0 0 1-.265.697zM4.733 16.795H3.048a.4.4 0 0 1-.399-.399v-4.285a.4.4 0 0 1 .399-.399h1.685c.22 0 .399.178.399.399v4.285a.399.399 0 0 1-.399.399zm-1.286-.798h.887V12.51h-.887v3.487z"/><path d="M3.048 16.795H1.363a.4.4 0 0 1-.399-.399v-4.285c0-.22.178-.399.399-.399h1.685c.22 0 .399.178.399.399v4.285a.399.399 0 0 1-.399.399zm-1.286-.798h.887V12.51h-.887v3.487zm6.672.798h-.752a1.381 1.381 0 0 1-1.379-1.379v-1.399c0-.22.178-.399.399-.399h2.713a.4.4 0 0 1 .399.399v1.399a1.381 1.381 0 0 1-1.379 1.379zm-1.333-2.379v1c0 .321.26.581.581.581h.752a.58.58 0 0 0 .581-.581v-1H7.1z"/><path d="M9.647 14.416H6.468a.754.754 0 0 1-.753-.753v-.414a.754.754 0 0 1 .753-.753h3.179a.754.754 0 0 1 .753.753v.414a.754.754 0 0 1-.753.754zm-3.135-.798h3.091v-.325H6.512v.325zm20.031 3.177h-2.054a.4.4 0 0 1-.399-.399v-2.807a.4.4 0 0 1 .399-.399h2.054c.22 0 .399.178.399.399v2.807a.399.399 0 0 1-.399.399zm-1.655-.798h1.256v-2.009h-1.256v2.009z"/><path d="M26.543 13.987h-2.054a.399.399 0 0 1-.399-.399v-1.227a.4.4 0 0 1 .399-.399h2.054a.4.4 0 0 1 .399.399v1.227a.4.4 0 0 1-.399.399zm-1.655-.798h1.256v-.429h-1.256v.429zm6.58 2.256c-.652 0-1.162-.627-1.162-1.428s.511-1.428 1.162-1.428c.652 0 1.162.627 1.162 1.428s-.511 1.428-1.162 1.428zm0-2.058c-.172 0-.364.27-.364.63s.192.63.364.63.364-.27.364-.63-.192-.63-.364-.63z"/><path d="M31.468 13.379a.399.399 0 0 1-.389-.31l-.61-2.66a1.025 1.025 0 1 1 1.997.006l.001-.007-.61 2.66a.4.4 0 0 1-.389.31zm0-3.425a.227.227 0 0 0-.221.279v-.002l.221.963.221-.963a.227.227 0 0 0-.221-.278zm-2.87 3.425a.399.399 0 0 1-.389-.31l-.61-2.66a1.025 1.025 0 1 1 1.997.006l.001-.007-.61 2.66a.4.4 0 0 1-.389.31zm0-3.425a.227.227 0 0 0-.221.279v-.002l.221.964.221-.963a.227.227 0 0 0-.221-.278z"/><path d="M29.515 14.668h-1.833a.4.4 0 0 1-.395-.34v-.002a1.596 1.596 0 0 1 .37-1.283l-.002.002c.258-.297.602-.468.943-.468s.685.17.943.468a1.598 1.598 0 0 1 .367 1.29l.001-.009a.4.4 0 0 1-.395.342zm-1.418-.798H29.1a.78.78 0 0 0-.162-.305l.001.001c-.101-.117-.235-.193-.34-.193s-.238.076-.34.193a.768.768 0 0 0-.16.298l-.001.005z"/></symbol><symbol id="logo-glianets" viewBox="0 0 30 32"><path fill="#ffd001" style="fill:var(--color3, #ffd001)" d="M16.925 0C9.189 2.633 2.662 8 0 16c2.63 7.909 9.097 13.336 16.925 16 6.962-5.416 10.758-9.766 13.551-16-4.008-2.715-5.693-4.114-8.943-8.317-4.354 2.042-8.145 4.419-11.502 8.23 1.204 1.733 3.206 3.348 4.823 4.678 2.357-1.749 4.155-3.453 5.318-4.914.731.901 1.554 1.499 2.339 2.001-2.027 3.476-4.299 5.385-7.106 7.208-4.216-2.251-7.604-6.149-9.253-9.445 3.087-5.137 7.93-8.605 13.432-10.537-.891-1.576-2.062-3.045-2.661-4.904z"/></symbol><symbol id="calendar1" viewBox="0 0 29 32"><path fill="#fff" style="fill:var(--color1, #fff)" d="M4.364 5.455a1.819 1.819 0 0 0-1.818 1.818v20.364c0 1.004.815 1.818 1.818 1.818h20.364a1.819 1.819 0 0 0 1.818-1.818V7.273a1.819 1.819 0 0 0-1.818-1.818H4.364zm-4 1.818a4 4 0 0 1 4-4h20.364a4 4 0 0 1 4 4v20.364a4 4 0 0 1-4 4H4.364a4 4 0 0 1-4-4V7.273z"/><path fill="#fff" style="fill:var(--color1, #fff)" d="M20.364.364c.602 0 1.091.488 1.091 1.091v5.818a1.09 1.09 0 1 1-2.182 0V1.455A1.09 1.09 0 0 1 20.364.364zm-11.637 0c.602 0 1.091.488 1.091 1.091v5.818a1.09 1.09 0 1 1-2.182 0V1.455A1.09 1.09 0 0 1 8.727.364zM.364 13.091C.364 12.489.852 12 1.455 12h26.182a1.091 1.091 0 0 1 0 2.182H1.455a1.09 1.09 0 0 1-1.091-1.091z"/></symbol><symbol id="smartphone1" viewBox="0 0 32 32"><path fill="none" stroke="#000" style="stroke:var(--color2, #000)" stroke-linejoin="round" stroke-linecap="round" stroke-width="2" d="M22.667 2.667H9.334a2.667 2.667 0 0 0-2.667 2.667v21.333a2.667 2.667 0 0 0 2.667 2.667v0h13.333a2.667 2.667 0 0 0 2.667-2.667v0V5.334a2.667 2.667 0 0 0-2.667-2.667v0zM16 24h.013"/></symbol><symbol id="smartphone-2" viewBox="0 0 32 32"><path fill="none" stroke="#44c697" style="stroke:var(--color1, #44c697)" stroke-linejoin="round" stroke-linecap="round" stroke-width="2" d="M22.667 2.667H9.334a2.667 2.667 0 0 0-2.667 2.667v21.333a2.667 2.667 0 0 0 2.667 2.667h13.333a2.667 2.667 0 0 0 2.667-2.667V5.334a2.667 2.667 0 0 0-2.667-2.667zM16 24h.013"/></symbol><symbol id="shopping-cart" viewBox="0 0 31 32"><path d="M11.613 27.291a.322.322 0 1 0 0 .644.323.323 0 1 0 0-.646zm-2.259.322a2.26 2.26 0 0 1 4.518 0 2.26 2.26 0 0 1-4.518 0zm16.452-.322a.322.322 0 1 0 0 .644.323.323 0 1 0 0-.646zm-2.258.322a2.26 2.26 0 0 1 4.518 0 2.26 2.26 0 0 1-4.516.002v-.003zM.323 1.806c0-.535.434-.968.967-.968h5.161a.97.97 0 0 1 .95.778l1.135 5.673h21.141a.969.969 0 0 1 .949 1.156l.001-.006-2.065 10.833a3.554 3.554 0 0 1-3.48 2.857l-.062-.001h.003-12.582a3.55 3.55 0 0 1-3.477-2.833l-.004-.023L6.802 8.494a1.064 1.064 0 0 1-.018-.086l-.001-.005-1.125-5.63H1.289a.968.968 0 0 1-.968-.967zm8.601 7.42 1.935 9.669a1.616 1.616 0 0 0 1.582 1.299h.031-.002H25.08c.778 0 1.428-.552 1.579-1.285l.002-.01v-.003l1.845-9.669H8.922z"/></symbol><symbol id="logo" viewBox="0 0 53 32"><path fill="#44c697" style="fill:var(--color2, #44c697)" d="M13.582 12.582H37.71V9.177H13.582V3.432H37.71V.027H11.724a1.57 1.57 0 0 0-1.57 1.559v16.767h3.428v-5.771z"/><path  d="M41.636 0h-1.885v18.327h3.428V1.56C43.205.702 42.499 0 41.635 0z"/><path  d="M45.901 11.932v9.099H7.432v-9.099H1.954A1.954 1.954 0 0 0 0 13.882v5.173c0 1.092.89 1.95 1.963 1.95h1.256l.55 6.394V32h1.413l1.649-4.601h39.673L48.153 32h1.413v-4.601l.55-6.395h1.256a1.954 1.954 0 0 0 1.963-1.95v-5.172c0-1.092-.89-1.95-1.963-1.95h-5.469z"/></symbol><symbol id="wardrobe" viewBox="0 0 22 32"><path d="M21.365 32H.395a.375.375 0 0 1-.375-.375V.375C.02.168.188 0 .395 0h20.97c.207 0 .375.168.375.375v31.25a.375.375 0 0 1-.375.375zM.77 31.25h20.22V.75H.77v30.5z"/><path d="M10.88 22.878c-.207 0-.375-.12-.375-.268V.268c0-.148.168-.268.375-.268s.375.12.375.268V22.61c0 .148-.168.268-.375.268zm0 9.122H.395a.375.375 0 0 1-.375-.375v-4.561c0-.207.168-.375.375-.375H10.88c.207 0 .375.168.375.375v4.561a.375.375 0 0 1-.375.375zM.77 31.25h9.735v-3.811H.77v3.811z"/><path d="M10.88 27.439H.395a.375.375 0 0 1-.375-.375v-4.561c0-.207.168-.375.375-.375H10.88c.207 0 .375.168.375.375v4.561a.375.375 0 0 1-.375.375zm-10.11-.75h9.734v-3.811H.77v3.811z"/><path d="M6.165 25.158H5.109a.376.376 0 0 1 0-.75h1.056a.375.375 0 0 1 0 .75zM8.67 12.273a.375.375 0 0 1-.375-.375v-.929a.375.375 0 0 1 .75 0v.011-.001.918a.375.375 0 0 1-.375.375zm4.42 4.561a.375.375 0 0 1-.375-.375v-.918a.375.375 0 0 1 .75 0v.918a.375.375 0 0 1-.375.375zM6.165 29.72H5.109a.375.375 0 0 1 0-.75h1.056a.375.375 0 0 1 0 .75z"/></symbol><symbol id="chair" viewBox="0 0 41 32"><path d="M31.137 17.092H9.888a1.852 1.852 0 0 1-1.849-1.848V1.9A1.852 1.852 0 0 1 9.887.051h21.249A1.851 1.851 0 0 1 32.985 1.9v13.343a1.851 1.851 0 0 1-1.849 1.849zM9.888 1.012a.887.887 0 0 0-.887.887v13.343c.001.49.398.887.887.887h21.249a.888.888 0 0 0 .887-.887V1.898a.887.887 0 0 0-.887-.887H9.888z"/><path d="M31.137 29.084H9.888a1.851 1.851 0 0 1-1.849-1.849v-9.256a1.852 1.852 0 0 1 1.848-1.849h21.249a1.852 1.852 0 0 1 1.849 1.848v9.256a1.85 1.85 0 0 1-1.849 1.849zM9.888 17.091a.887.887 0 0 0-.887.887v9.256c0 .49.397.887.887.887h21.249a.889.889 0 0 0 .887-.887v-9.256a.887.887 0 0 0-.887-.887H9.888z"/><path d="M39.177 29.084h-5.304a1.85 1.85 0 0 1-1.849-1.849V11.013a1.851 1.851 0 0 1 1.849-1.849h5.304a1.852 1.852 0 0 1 1.849 1.848v16.222a1.85 1.85 0 0 1-1.848 1.849zm-5.304-18.959a.887.887 0 0 0-.887.887v16.222c0 .49.397.887.887.887h5.303c.49 0 .887-.397.887-.887V11.012a.887.887 0 0 0-.887-.887h-5.303zM7.152 29.084H1.849A1.85 1.85 0 0 1 0 27.235V11.013a1.852 1.852 0 0 1 1.848-1.849h5.304a1.852 1.852 0 0 1 1.849 1.848v16.222a1.85 1.85 0 0 1-1.848 1.849zM1.849 10.125a.889.889 0 0 0-.887.887v16.222c0 .49.397.887.887.887h5.304a.889.889 0 0 0 .887-.887V11.012a.887.887 0 0 0-.887-.887H1.849z"/><path d="M32.505 23.088H8.521a.48.48 0 1 1 0-.962h23.984a.48.48 0 1 1 0 .962zM4.5 31.949h-.002a1.733 1.733 0 0 1-1.678-1.303l-.003-.012-.478-1.915a.481.481 0 0 1 .467-.597h3.387a.48.48 0 0 1 .466.6l.001-.003-.478 1.915a1.734 1.734 0 0 1-1.68 1.315h-.003zm-1.078-2.865.328 1.317a.775.775 0 0 0 1.499.005l.001-.005.328-1.317H3.422zm33.103 2.865h-.002a1.733 1.733 0 0 1-1.678-1.302l-.003-.012-.478-1.915a.481.481 0 0 1 .467-.597h3.388a.48.48 0 0 1 .466.6l.001-.003-.478 1.915a1.733 1.733 0 0 1-1.68 1.314h-.002zm-1.079-2.865.329 1.317a.775.775 0 0 0 1.499.005l.001-.005.329-1.317h-2.157z"/></symbol><symbol id="sofa" viewBox="0 0 38 32"><path d="M17.778 30.164H6.387a1.719 1.719 0 0 1-1.717-1.717v-4.425a1.719 1.719 0 0 1 1.717-1.717h11.391a1.719 1.719 0 0 1 1.717 1.717v4.425a1.72 1.72 0 0 1-1.716 1.717zM6.387 23.197a.824.824 0 0 0-.824.824v4.425c0 .455.369.824.824.824h11.391a.825.825 0 0 0 .824-.824v-4.425a.824.824 0 0 0-.824-.824H6.387z"/><path d="M3.846 30.164H1.717A1.72 1.72 0 0 1 0 28.447v-8.471a1.718 1.718 0 0 1 1.716-1.717h2.13a1.719 1.719 0 0 1 1.717 1.717v8.471a1.719 1.719 0 0 1-1.717 1.717zM1.717 19.151a.825.825 0 0 0-.824.824v8.471a.825.825 0 0 0 .824.824h2.13a.825.825 0 0 0 .824-.824v-8.471a.824.824 0 0 0-.824-.824H1.718z"/><path d="M32.979 26.681H5.116a.446.446 0 1 1 0-.892h27.863a.446.446 0 1 1 0 .892zm-15.201-3.483H6.387a1.718 1.718 0 0 1-1.717-1.716v-6.799a1.719 1.719 0 0 1 1.717-1.717h11.391a1.719 1.719 0 0 1 1.717 1.717v6.799a1.72 1.72 0 0 1-1.716 1.717zm-11.391-9.34a.825.825 0 0 0-.824.824v6.799c0 .455.369.824.824.824h11.391a.824.824 0 0 0 .824-.824v-6.798a.824.824 0 0 0-.824-.824H6.387z"/><path d="M31.709 23.198h-11.39a1.718 1.718 0 0 1-1.717-1.716v-6.799a1.718 1.718 0 0 1 1.716-1.717h11.391a1.719 1.719 0 0 1 1.717 1.717v6.799a1.719 1.719 0 0 1-1.717 1.717zm-11.391-9.34a.825.825 0 0 0-.824.824v6.799c0 .455.369.824.824.824h11.391a.824.824 0 0 0 .824-.824v-6.798a.824.824 0 0 0-.824-.824H20.318z"/><path d="M31.709 30.164h-11.39a1.719 1.719 0 0 1-1.717-1.717v-4.425a1.718 1.718 0 0 1 1.716-1.717h11.391a1.719 1.719 0 0 1 1.717 1.717v4.425a1.719 1.719 0 0 1-1.717 1.717zm-11.391-6.966a.824.824 0 0 0-.824.824v4.425c0 .455.369.824.824.824h11.391a.825.825 0 0 0 .824-.824v-4.426a.824.824 0 0 0-.824-.824H20.318z"/><path d="M36.378 30.164h-2.129a1.719 1.719 0 0 1-1.717-1.717v-8.471a1.719 1.719 0 0 1 1.717-1.717h2.129a1.719 1.719 0 0 1 1.717 1.717v8.471a1.72 1.72 0 0 1-1.717 1.717zM34.25 19.152a.824.824 0 0 0-.824.824v8.471a.825.825 0 0 0 .824.824h2.13a.825.825 0 0 0 .824-.824v-8.471a.824.824 0 0 0-.824-.824h-2.129zm-14.159 4.046h-2.088a.446.446 0 1 1 0-.892h2.088a.446.446 0 1 1 0 .892zm7.128-11.526H10.876a.446.446 0 0 1-.446-.446V.62c0-.246.2-.446.446-.446h16.343c.247 0 .446.2.446.446v10.606c0 .246-.2.446-.446.446zm-15.897-.893h15.451V1.065H11.322v9.714z"/><path d="M25.732 10.185H12.363a.446.446 0 0 1-.446-.446V2.107c0-.246.2-.446.446-.446h13.369c.246 0 .446.2.446.446v7.632c0 .246-.2.446-.446.446zM12.81 9.292h12.476V2.553H12.81v6.739z"/><path d="M13.963 8.549a.446.446 0 0 1-.316-.761l2.296-2.296a.444.444 0 0 1 .632 0l1.393 1.393a.447.447 0 0 1-.631.63L16.26 6.438l-1.98 1.98a.445.445 0 0 1-.315.131z"/><path d="M24.132 8.526a.443.443 0 0 1-.315-.131l-1.63-1.63-1.834-1.834-.557-.557-2.485 2.485a.447.447 0 1 1-.632-.632l2.8-2.8a.444.444 0 0 1 .632 0l.872.872 1.834 1.834 1.63 1.63a.446.446 0 0 1-.315.761z"/><path d="M22.502 6.895a.447.447 0 0 1-.316-.131L20.352 4.93a.444.444 0 0 1-.097-.488l-.001.003a1.852 1.852 0 1 1 2.429 2.411l-.012.005a.446.446 0 0 1-.169.033zm-1.276-2.354 1.35 1.35a.959.959 0 1 0-1.348-1.352l-.001.002zm14.088 27.286h-.002a1.173 1.173 0 0 1-1.136-.882l-.002-.008-.277-1.112a.446.446 0 0 1 .433-.554h1.967a.446.446 0 0 1 .432.557l.001-.003-.277 1.112c-.131.515-.591.89-1.138.89h-.002zm-.412-1.664.139.558a.282.282 0 0 0 .546.002v-.002l.139-.558h-.825zM2.781 31.827h-.002a1.173 1.173 0 0 1-1.136-.882l-.002-.008-.277-1.112a.446.446 0 0 1 .433-.554h1.967a.446.446 0 0 1 .432.557l.001-.003-.277 1.112c-.131.515-.591.89-1.138.89H2.78zm-.412-1.664.139.558a.282.282 0 0 0 .546.002v-.002l.139-.558h-.824z"/></symbol><symbol id="chevron-right" viewBox="0 0 32 32"><path d="M24.707 11.293a1 1 0 0 1 0 1.414l-8 8a1 1 0 0 1-1.414 0l-8-8a1 1 0 0 1 1.414-1.413l-.001-.001 7.293 7.293 7.293-7.293a1 1 0 0 1 1.414 0z"/></symbol><symbol id="arrow" viewBox="0 0 28 32"><path fill="#fff" style="fill:var(--color1, #fff)" d="M15.479 1.004c-.322-.322-.766-.52-1.257-.52s-.935.199-1.257.52L1.651 12.32a1.778 1.778 0 1 0 2.514 2.516L14.222 4.777l10.057 10.057a1.778 1.778 0 1 0 2.514-2.516L15.479 1.004zM16 30.546V2.262h-3.556v28.284H16z"/></symbol></defs></svg>